<?xml version="1.0" encoding="UTF-8" standalone="no"?>
<!DOCTYPE svg PUBLIC "-//W3C//DTD SVG 1.1//EN" "http://www.w3.org/Graphics/SVG/1.1/DTD/svg11.dtd">
<svg width="100%" height="100%" viewBox="0 0 795 550" version="1.1" xmlns="http://www.w3.org/2000/svg" xmlns:xlink="http://www.w3.org/1999/xlink" xml:space="preserve" xmlns:serif="http://www.serif.com/" style="fill-rule:evenodd;clip-rule:evenodd;stroke-linecap:round;stroke-linejoin:round;stroke-miterlimit:1.5;">
    <g transform="matrix(1,0,0,1,3.37091,-20)">
        <g transform="matrix(1,0,0,1,1.16351e-13,4.84344)">
            <path d="M111.938,445.538L111.938,476.214" style="fill:none;stroke:hsl(0, 0%, 90%);stroke-width:5px;"/>
        </g>
        <g transform="matrix(1,0,0,1,1.16351e-13,4.84344)">
            <path d="M91.938,445.538L91.938,476.214" style="fill:none;stroke:hsl(0, 0%, 90%);stroke-width:5px;"/>
        </g>
        <g transform="matrix(1,0,0,1,1.16351e-13,4.84344)">
            <path d="M349.837,445.538L349.837,476.214" style="fill:none;stroke:hsl(0, 0%, 90%);stroke-width:5px;"/>
        </g>
        <g transform="matrix(1,0,0,1,1.16351e-13,4.84344)">
            <path d="M369.837,445.538L369.837,476.214" style="fill:none;stroke:hsl(0, 0%, 90%);stroke-width:5px;"/>
        </g>
        <g transform="matrix(1.18359,0,0,1.18359,-43.5448,-90.7504)">
            <path d="M36.79,520.686C36.79,530.651 40.749,540.208 47.795,547.254C54.841,554.3 64.398,558.258 74.362,558.258L400.001,558.258C409.966,558.258 419.523,554.3 426.569,547.254C433.615,540.208 437.573,530.651 437.573,520.686L437.573,520.684C437.573,510.719 433.615,501.162 426.569,494.116C419.523,487.07 409.966,483.112 400.001,483.112L74.362,483.112C64.398,483.112 54.841,487.07 47.795,494.116C40.749,501.162 36.79,510.719 36.79,520.684L36.79,520.686Z" style="fill:hsl(0, 0%, 25%);"/>
            <path d="M36.79,520.686L36.79,520.684C36.79,510.719 40.749,501.162 47.795,494.116C54.841,487.07 64.398,483.112 74.362,483.112L400.001,483.112C409.966,483.112 419.523,487.07 426.569,494.116C433.615,501.162 437.573,510.719 437.573,520.684L437.573,520.686C437.573,530.651 433.615,540.208 426.569,547.254C419.523,554.3 409.966,558.258 400.001,558.258L74.362,558.258C64.398,558.258 54.841,554.3 47.795,547.254C40.749,540.208 36.79,530.651 36.79,520.686ZM41.015,520.686C41.015,529.531 44.528,538.013 50.782,544.267C57.036,550.521 65.518,554.034 74.362,554.034L400.001,554.034C408.846,554.034 417.328,550.521 423.582,544.267C429.836,538.013 433.349,529.531 433.349,520.686L433.349,520.684C433.349,511.839 429.836,503.357 423.582,497.103C417.328,490.85 408.846,487.336 400.001,487.336L74.362,487.336C65.518,487.336 57.036,490.85 50.782,497.103C44.528,503.357 41.015,511.839 41.015,520.684L41.015,520.686Z" style="fill:hsl(0, 0%, 90%);"/>
        </g>
        <g transform="matrix(1,0,0,1,1.16351e-13,4.84344)">
            <path d="M662.642,520.685L788.258,394.279L788.258,508.685C788.258,511.868 786.994,514.92 784.743,517.17C782.493,519.421 779.441,520.685 776.258,520.685C740.696,520.685 638.337,520.685 638.337,520.685L662.642,520.685Z" style="fill:hsl(0, 0%, 25%);stroke:hsl(0, 0%, 90%);stroke-width:5px;"/>
        </g>
        <g transform="matrix(1,0,0,1,1.16351e-13,12.8434)">
            <path d="M302.087,312.338C307.609,312.338 312.087,316.816 312.087,322.338C312.087,352.017 312.087,437.538 312.087,437.538L427.574,437.538C433.096,437.538 437.573,433.061 437.573,427.538C437.573,412.477 437.573,385.711 437.573,385.711L344.18,385.711C339.593,385.711 335.594,382.59 334.48,378.141C327.314,349.539 302.294,249.672 302.294,249.672L259.706,249.672C254.184,249.672 249.706,254.149 249.706,259.672C249.706,277.365 249.706,312.338 249.706,312.338C249.706,312.338 284.46,312.338 302.087,312.338Z" style="fill:hsl(0, 0%, 25%);stroke:hsl(0, 0%, 90%);stroke-width:5px;"/>
        </g>
        <g transform="matrix(1,0,0,1,1.16351e-13,12.8434)">
            <path d="M437.573,385.711L437.573,352.258C437.573,350.704 437.211,349.17 436.515,347.78C430.405,335.582 399.599,274.076 390.142,255.193C388.447,251.809 384.986,249.672 381.2,249.672C361.634,249.672 302.294,249.672 302.294,249.672C302.294,249.672 327.113,349.483 334.229,378.101C335.337,382.558 339.339,385.687 343.931,385.688C367.711,385.694 437.573,385.711 437.573,385.711Z" style="fill:none;stroke:hsl(0, 0%, 90%);stroke-width:5px;"/>
        </g>
        <g transform="matrix(1,0,0,1,1.16351e-13,12.8434)">
            <path d="M635.191,21.391C627.993,28.588 623.539,38.528 623.539,49.5C623.539,58.928 626.828,67.594 632.319,74.412C632.319,74.412 638.337,92.316 638.337,92.316L425.191,198.929L401.979,278.827C401.979,278.827 394.376,263.647 390.142,255.193C388.447,251.809 384.986,249.672 381.2,249.672C363.243,249.672 312.311,249.672 312.311,249.672L349.837,149.267L635.192,21.391L635.191,21.391Z" style="fill:hsl(0, 0%, 25%);stroke:hsl(0, 0%, 90%);stroke-width:5px;"/>
        </g>
        <g transform="matrix(1,0,0,1,1.16351e-13,12.8434)">
            <path d="M632.319,74.412C639.61,83.464 650.783,89.261 663.3,89.261C682.772,89.261 698.994,75.232 702.402,56.739L788.258,386.279L750.056,424.722C750.056,424.722 632.319,74.412 632.319,74.412Z" style="fill:hsl(0, 0%, 25%);stroke:hsl(0, 0%, 90%);stroke-width:5px;"/>
        </g>
        <g transform="matrix(2.29586,0,0,2.29586,-724.13,-142.719)">
            <circle cx="604.318" cy="89.318" r="17.318" style="fill:hsl(0, 0%, 25%);stroke:hsl(0, 0%, 90%);stroke-width:2.18px;"/>
        </g>
        <g transform="matrix(1,0,0,3.68235,1.16351e-13,-602.771)">
            <path d="M312.087,254.716C312.087,253.216 307.609,252 302.087,252L46.79,252C41.268,252 36.79,253.216 36.79,254.716L36.79,283.284C36.79,284.784 41.268,286 46.79,286L312.087,286L312.087,254.716Z" style="fill:hsl(0, 0%, 25%);"/>
        </g>
        <g transform="matrix(1,0,0,3.68235,1.16351e-13,-602.771)">
            <path d="M314.587,254.716L314.587,286C314.587,286.375 313.467,286.679 312.087,286.679L46.79,286.679C39.887,286.679 34.29,285.159 34.29,283.284L34.29,254.716C34.29,252.841 39.887,251.321 46.79,251.321L302.087,251.321C308.99,251.321 314.587,252.841 314.587,254.716ZM309.587,254.716C309.587,253.591 306.229,252.679 302.087,252.679L46.79,252.679C42.648,252.679 39.29,253.591 39.29,254.716L39.29,283.284C39.29,284.409 42.648,285.321 46.79,285.321L309.587,285.321L309.587,254.716Z" style="fill:hsl(0, 0%, 90%);"/>
        </g>
        <g transform="matrix(0.998043,0,0,0.998043,-1.9109e-07,-192.279)">
            <path d="M41.098,710.902C38.902,713.082 37.647,716.125 37.647,719.216C37.647,722.306 38.902,725.349 41.098,727.529C43.278,729.725 46.322,730.98 49.412,730.98C52.502,730.98 55.545,729.725 57.725,727.529C59.922,725.349 61.176,722.306 61.176,719.216C61.176,716.125 59.922,713.082 57.725,710.902C55.545,708.706 52.502,707.451 49.412,707.451C46.322,707.451 43.278,708.706 41.098,710.902Z" style="fill:hsl(210, 20%, 10%);fill-rule:nonzero;stroke:hsl(0, 0%, 90%);stroke-width:5.01px;stroke-linecap:butt;stroke-miterlimit:2;"/>
        </g>
        <g transform="matrix(0.998043,0,0,0.998043,-1.9109e-07,-192.279)">
            <path d="M413.333,730.98C416.424,730.98 419.467,729.725 421.647,727.529C423.843,725.349 425.098,722.306 425.098,719.216C425.098,716.125 423.843,713.082 421.647,710.902C419.467,708.706 416.439,707.451 413.333,707.451C410.243,707.451 407.2,708.706 405.02,710.902C402.824,713.082 401.569,716.125 401.569,719.216C401.569,722.322 402.824,725.349 405.02,727.529C407.2,729.725 410.243,730.98 413.333,730.98Z" style="fill:hsl(210, 20%, 10%);fill-rule:nonzero;stroke:hsl(0, 0%, 90%);stroke-width:5.01px;stroke-linecap:butt;stroke-miterlimit:2;"/>
        </g>
        <g transform="matrix(0.998043,0,0,0.998043,-1.9109e-07,-192.279)">
            <path d="M87.059,730.98L375.686,730.98C382.184,730.98 387.451,725.713 387.451,719.216C387.451,712.718 382.184,707.451 375.686,707.451L87.059,707.451C80.562,707.451 75.294,712.718 75.294,719.216C75.294,725.713 80.562,730.98 87.059,730.98Z" style="fill:hsl(210, 20%, 10%);fill-rule:nonzero;stroke:hsl(0, 0%, 90%);stroke-width:5.01px;stroke-linecap:butt;stroke-miterlimit:2;"/>
        </g>
        <g transform="matrix(1,0,0,1,1.16351e-13,4.84344)">
            <path d="M178,357.867L81,357.867" style="fill:none;stroke:hsl(0, 0%, 90%);stroke-width:5px;"/>
        </g>
        <g transform="matrix(1,0,0,1,1.16351e-13,4.84344)">
            <path d="M81,395.441L178,395.441" style="fill:none;stroke:hsl(0, 0%, 90%);stroke-width:5px;"/>
        </g>
    </g>
</svg>
