<svg width="169" height="101" viewBox="0 0 169 101" fill="none" xmlns="http://www.w3.org/2000/svg">
<mask id="path-1-inside-1_121_335" fill="white">
<path fill-rule="evenodd" clip-rule="evenodd" d="M165.896 97.7134H165.419L121.605 86.6797C120.284 86.4012 119.07 85.7694 118.1 84.8557C117.13 83.942 116.444 82.783 116.118 81.51C115.948 80.5679 115.98 79.6019 116.213 78.6725C116.445 77.7431 116.873 76.8703 117.47 76.1089C115.145 72.3595 112.339 68.9113 109.12 65.8467V66.0782C111.153 68.2546 112.683 70.8276 113.607 73.6246C114.531 76.4217 114.828 79.3781 114.477 82.2956C114.127 85.2131 113.138 88.0243 111.577 90.5405C110.015 93.0567 107.917 95.2199 105.424 96.8848C102.93 98.5498 100.098 99.6781 97.1183 100.194C94.1384 100.71 91.0792 100.602 88.146 99.8764C85.2127 99.151 82.4733 97.8255 80.1113 95.9886C77.7493 94.1517 75.8193 91.8459 74.451 89.2259H61.2511C59.5075 92.6966 56.7937 95.622 53.4194 97.6684C50.0452 99.7147 46.1461 100.8 42.167 100.8C38.1879 100.8 34.2888 99.7147 30.9146 97.6684C27.5403 95.622 24.8265 92.6966 23.0829 89.2259H16.4034C12.1856 89.2259 8.14049 87.6001 5.15802 84.706C2.17555 81.812 0.5 77.8869 0.5 73.7941V38.1466C0.5 34.5449 1.97447 31.0908 4.59904 28.544C7.22362 25.9973 10.7833 24.5666 14.495 24.5666H52.5042V2.73051C52.5042 2.21891 52.7137 1.72827 53.0865 1.36652C53.4593 1.00476 53.9649 0.801533 54.4922 0.801533H94.2507C94.5149 0.790454 94.7785 0.832738 95.0249 0.925714C95.2712 1.01869 95.495 1.16033 95.6821 1.34164L101.725 7.12858C102.036 7.44523 102.231 7.85163 102.282 8.28597L106.814 44.0878C117.069 48.8834 125.783 56.299 132.021 65.5381L153.491 50.6463C153.83 50.3834 154.25 50.2401 154.684 50.2401C155.117 50.2401 155.538 50.3834 155.877 50.6463C156.19 50.8129 156.452 51.0585 156.634 51.3573C156.816 51.656 156.911 51.9968 156.91 52.3438V66.8498L168.202 94.9357C168.397 95.2641 168.5 95.6367 168.5 96.0159C168.5 96.3952 168.397 96.7677 168.202 97.0962C167.907 97.3869 167.539 97.5972 167.134 97.7056C166.729 97.8139 166.302 97.8167 165.896 97.7134ZM97.9738 9.36539L93.0438 4.65869H56.2273V25.0287L101.632 37.8371L97.9738 9.36539ZM51.5573 93.7412C48.73 95.593 45.4046 96.5983 41.9938 96.6324V96.941C38.4946 96.9326 35.0784 95.9061 32.1867 93.9942C29.295 92.0823 27.0606 89.3728 25.7722 86.2159C24.9458 84.1753 24.5145 82.0042 24.5 79.8117C24.5 75.3506 26.3263 71.0722 29.5772 67.9177C32.8281 64.7632 37.2373 62.991 41.8347 62.991C46.4322 62.991 50.8413 64.7632 54.0922 67.9177C57.3431 71.0722 59.1695 75.3506 59.1695 79.8117C59.1927 82.0077 58.76 84.1857 57.8972 86.2159C56.589 89.2727 54.3845 91.8894 51.5573 93.7412ZM102.896 93.9637C100.058 95.7441 96.7413 96.6724 93.3618 96.6324V96.941C90.5321 96.8883 87.7592 96.1609 85.2875 94.8231C82.8157 93.4852 80.7211 91.5779 79.1882 89.2693C77.6552 86.9607 76.7311 84.3216 76.4971 81.5847C76.2632 78.8477 76.7266 76.097 77.8466 73.5748C78.9666 71.0527 80.7087 68.8366 82.9195 67.1218C85.1303 65.4071 87.7418 64.2464 90.5239 63.7419C93.306 63.2375 96.1733 63.4048 98.873 64.2292C101.573 65.0536 104.022 66.5098 106.005 68.4693C108.337 70.8434 109.895 73.8321 110.484 77.0614C111.073 80.2906 110.668 83.6167 109.318 86.6233C107.968 89.6299 105.734 92.1832 102.896 93.9637ZM103.779 47.0962C113.827 51.6471 122.386 58.8032 128.508 67.7749L127.952 68.315L120.795 73.2532C117.212 67.9331 112.905 63.1058 107.993 58.9016L106.482 57.5899C101.593 53.2838 95.655 50.2567 89.2269 48.7937L38.1769 36.9112L36.8232 36.1633C36.4751 35.7691 36.279 35.2698 36.2685 34.7508C36.2 34.5241 36.2 34.283 36.2685 34.0563C36.4368 33.475 36.8254 32.977 37.3563 32.6622L39.1311 32.3588L97.0196 44.9358C99.3383 45.4457 101.602 46.1691 103.779 47.0962ZM153.397 70.0125L142.981 75.6451C142.64 75.716 142.288 75.716 141.947 75.6451C141.589 75.6461 141.238 75.5534 140.93 75.3769C140.622 75.2003 140.369 74.9465 140.197 74.6421C139.964 74.1883 139.915 73.6653 140.063 73.1785C140.211 72.6917 140.543 72.2773 140.993 72.0186L152.443 66.0774V55.8924L130.337 71.3242L121.193 77.8827C120.771 78.244 120.458 78.71 120.288 79.2308C120.118 79.7515 120.097 80.3073 120.228 80.8386C120.358 81.3699 120.636 81.8567 121.03 82.2467C121.424 82.6367 121.92 82.9152 122.465 83.0524L162.701 93.0831L153.397 70.0125Z"/>
</mask>
<path fill-rule="evenodd" clip-rule="evenodd" d="M165.896 97.7134H165.419L121.605 86.6797C120.284 86.4012 119.07 85.7694 118.1 84.8557C117.13 83.942 116.444 82.783 116.118 81.51C115.948 80.5679 115.98 79.6019 116.213 78.6725C116.445 77.7431 116.873 76.8703 117.47 76.1089C115.145 72.3595 112.339 68.9113 109.12 65.8467V66.0782C111.153 68.2546 112.683 70.8276 113.607 73.6246C114.531 76.4217 114.828 79.3781 114.477 82.2956C114.127 85.2131 113.138 88.0243 111.577 90.5405C110.015 93.0567 107.917 95.2199 105.424 96.8848C102.93 98.5498 100.098 99.6781 97.1183 100.194C94.1384 100.71 91.0792 100.602 88.146 99.8764C85.2127 99.151 82.4733 97.8255 80.1113 95.9886C77.7493 94.1517 75.8193 91.8459 74.451 89.2259H61.2511C59.5075 92.6966 56.7937 95.622 53.4194 97.6684C50.0452 99.7147 46.1461 100.8 42.167 100.8C38.1879 100.8 34.2888 99.7147 30.9146 97.6684C27.5403 95.622 24.8265 92.6966 23.0829 89.2259H16.4034C12.1856 89.2259 8.14049 87.6001 5.15802 84.706C2.17555 81.812 0.5 77.8869 0.5 73.7941V38.1466C0.5 34.5449 1.97447 31.0908 4.59904 28.544C7.22362 25.9973 10.7833 24.5666 14.495 24.5666H52.5042V2.73051C52.5042 2.21891 52.7137 1.72827 53.0865 1.36652C53.4593 1.00476 53.9649 0.801533 54.4922 0.801533H94.2507C94.5149 0.790454 94.7785 0.832738 95.0249 0.925714C95.2712 1.01869 95.495 1.16033 95.6821 1.34164L101.725 7.12858C102.036 7.44523 102.231 7.85163 102.282 8.28597L106.814 44.0878C117.069 48.8834 125.783 56.299 132.021 65.5381L153.491 50.6463C153.83 50.3834 154.25 50.2401 154.684 50.2401C155.117 50.2401 155.538 50.3834 155.877 50.6463C156.19 50.8129 156.452 51.0585 156.634 51.3573C156.816 51.656 156.911 51.9968 156.91 52.3438V66.8498L168.202 94.9357C168.397 95.2641 168.5 95.6367 168.5 96.0159C168.5 96.3952 168.397 96.7677 168.202 97.0962C167.907 97.3869 167.539 97.5972 167.134 97.7056C166.729 97.8139 166.302 97.8167 165.896 97.7134ZM97.9738 9.36539L93.0438 4.65869H56.2273V25.0287L101.632 37.8371L97.9738 9.36539ZM51.5573 93.7412C48.73 95.593 45.4046 96.5983 41.9938 96.6324V96.941C38.4946 96.9326 35.0784 95.9061 32.1867 93.9942C29.295 92.0823 27.0606 89.3728 25.7722 86.2159C24.9458 84.1753 24.5145 82.0042 24.5 79.8117C24.5 75.3506 26.3263 71.0722 29.5772 67.9177C32.8281 64.7632 37.2373 62.991 41.8347 62.991C46.4322 62.991 50.8413 64.7632 54.0922 67.9177C57.3431 71.0722 59.1695 75.3506 59.1695 79.8117C59.1927 82.0077 58.76 84.1857 57.8972 86.2159C56.589 89.2727 54.3845 91.8894 51.5573 93.7412ZM102.896 93.9637C100.058 95.7441 96.7413 96.6724 93.3618 96.6324V96.941C90.5321 96.8883 87.7592 96.1609 85.2875 94.8231C82.8157 93.4852 80.7211 91.5779 79.1882 89.2693C77.6552 86.9607 76.7311 84.3216 76.4971 81.5847C76.2632 78.8477 76.7266 76.097 77.8466 73.5748C78.9666 71.0527 80.7087 68.8366 82.9195 67.1218C85.1303 65.4071 87.7418 64.2464 90.5239 63.7419C93.306 63.2375 96.1733 63.4048 98.873 64.2292C101.573 65.0536 104.022 66.5098 106.005 68.4693C108.337 70.8434 109.895 73.8321 110.484 77.0614C111.073 80.2906 110.668 83.6167 109.318 86.6233C107.968 89.6299 105.734 92.1832 102.896 93.9637ZM103.779 47.0962C113.827 51.6471 122.386 58.8032 128.508 67.7749L127.952 68.315L120.795 73.2532C117.212 67.9331 112.905 63.1058 107.993 58.9016L106.482 57.5899C101.593 53.2838 95.655 50.2567 89.2269 48.7937L38.1769 36.9112L36.8232 36.1633C36.4751 35.7691 36.279 35.2698 36.2685 34.7508C36.2 34.5241 36.2 34.283 36.2685 34.0563C36.4368 33.475 36.8254 32.977 37.3563 32.6622L39.1311 32.3588L97.0196 44.9358C99.3383 45.4457 101.602 46.1691 103.779 47.0962ZM153.397 70.0125L142.981 75.6451C142.64 75.716 142.288 75.716 141.947 75.6451C141.589 75.6461 141.238 75.5534 140.93 75.3769C140.622 75.2003 140.369 74.9465 140.197 74.6421C139.964 74.1883 139.915 73.6653 140.063 73.1785C140.211 72.6917 140.543 72.2773 140.993 72.0186L152.443 66.0774V55.8924L130.337 71.3242L121.193 77.8827C120.771 78.244 120.458 78.71 120.288 79.2308C120.118 79.7515 120.097 80.3073 120.228 80.8386C120.358 81.3699 120.636 81.8567 121.03 82.2467C121.424 82.6367 121.92 82.9152 122.465 83.0524L162.701 93.0831L153.397 70.0125Z" fill="#F57079"/>
<path d="M93.5351 96.6332L93.541 96.1332L93.0351 96.1272V96.6332H93.5351ZM106.178 68.4701L106.535 68.1197L106.53 68.1145L106.178 68.4701ZM93.5351 96.9418L93.5258 97.4418L94.0351 97.4513V96.9418H93.5351ZM42.167 96.6332L42.162 96.1332L41.667 96.1382V96.6332H42.167ZM58.0704 86.2167L58.5301 86.4134L58.5306 86.4123L58.0704 86.2167ZM59.3427 79.8125L58.8427 79.8125L58.8427 79.8178L59.3427 79.8125ZM54.2655 67.9185L54.6137 67.5596L54.6137 67.5596L54.2655 67.9185ZM29.7505 67.9185L29.4023 67.5596L29.4023 67.5596L29.7505 67.9185ZM24.6732 79.8125H24.1732L24.1732 79.8158L24.6732 79.8125ZM25.9455 86.2167L25.4821 86.4044L25.4826 86.4057L25.9455 86.2167ZM42.167 96.9418L42.1658 97.4418L42.667 97.4431V96.9418H42.167ZM98.1471 9.36619L98.643 9.30248L98.6204 9.12683L98.4924 9.00454L98.1471 9.36619ZM93.217 4.65949L93.5623 4.29784L93.4174 4.15949H93.217V4.65949ZM56.4006 4.65949V4.15949H55.9006V4.65949H56.4006ZM56.4006 25.0295H55.9006V25.408L56.2648 25.5107L56.4006 25.0295ZM101.805 37.8379L101.669 38.3191L102.397 38.5245L102.301 37.7742L101.805 37.8379ZM128.682 67.7757L129.03 68.1345L129.332 67.8414L129.095 67.4938L128.682 67.7757ZM103.952 47.097L104.158 46.6414L104.148 46.637L103.952 47.097ZM97.1929 44.9366L97.3003 44.4482L97.299 44.448L97.1929 44.9366ZM39.3044 32.3596L39.4106 31.8709L39.4008 31.869L39.3044 32.3596ZM37.5296 32.663L37.7846 33.093L37.7846 33.093L37.5296 32.663ZM36.4418 34.0571L36.9204 34.2017L36.922 34.1961L36.4418 34.0571ZM36.4418 34.7516L36.9417 34.7415L36.9403 34.6728L36.9204 34.607L36.4418 34.7516ZM38.3502 36.912L38.4635 36.425L38.4488 36.4216L38.4338 36.4191L38.3502 36.912ZM89.4002 48.7945L89.2868 49.2815L89.2892 49.2821L89.4002 48.7945ZM106.655 57.5907L106.325 57.9659L106.328 57.9682L106.655 57.5907ZM108.166 58.9024L107.838 59.2799L107.841 59.2823L108.166 58.9024ZM120.969 73.254L120.554 73.5333L120.836 73.9527L121.252 73.6655L120.969 73.254ZM128.125 68.3158L128.409 68.7273L128.443 68.7037L128.473 68.6746L128.125 68.3158ZM153.571 70.0133L154.034 69.8263L153.825 69.3073L153.333 69.5735L153.571 70.0133ZM143.154 75.6459L143.256 76.1354L143.327 76.1205L143.392 76.0857L143.154 75.6459ZM142.12 75.6459L142.222 75.1564L142.171 75.1458L142.119 75.1459L142.12 75.6459ZM140.371 74.6429L139.926 74.872L139.931 74.8803L139.935 74.8884L140.371 74.6429ZM140.236 73.1793L139.758 73.0343L139.758 73.0343L140.236 73.1793ZM141.166 72.0194L140.936 71.5756L140.926 71.5806L140.917 71.586L141.166 72.0194ZM152.616 66.0782L152.847 66.522L153.116 66.382V66.0782H152.616ZM152.616 55.8932H153.116V54.9343L152.33 55.4832L152.616 55.8932ZM130.511 71.325L130.224 70.915L130.219 70.9187L130.511 71.325ZM121.366 77.8835L121.075 77.4772L121.057 77.4897L121.041 77.5036L121.366 77.8835ZM121.203 82.2475L120.852 82.6029L120.852 82.6029L121.203 82.2475ZM122.638 83.0532L122.516 83.5381L122.517 83.5384L122.638 83.0532ZM162.874 93.0839L162.753 93.569L163.704 93.8062L163.338 92.8969L162.874 93.0839ZM93.5292 97.1332C97.0037 97.1743 100.415 96.2199 103.335 94.388L102.804 93.5409C100.047 95.2698 96.8253 96.1721 93.541 96.1332L93.5292 97.1332ZM103.335 94.388C106.255 92.556 108.556 89.9272 109.947 86.8289L109.035 86.4193C107.726 89.3342 105.56 91.8121 102.804 93.5409L103.335 94.388ZM109.947 86.8289C111.338 83.7304 111.757 80.3016 111.149 76.9724L110.165 77.1519C110.736 80.2812 110.343 83.5047 109.035 86.4193L109.947 86.8289ZM111.149 76.9724C110.542 73.6433 108.936 70.5641 106.535 68.1198L105.822 68.8205C108.084 71.1242 109.594 74.0225 110.165 77.1519L111.149 76.9724ZM106.53 68.1145C104.488 66.0973 101.968 64.5996 99.1923 63.7518L98.9003 64.7082C101.524 65.5093 103.902 66.9238 105.827 68.8258L106.53 68.1145ZM99.1923 63.7518C96.4163 62.9041 93.4683 62.7321 90.608 63.2507L90.7864 64.2347C93.4902 63.7445 96.2769 63.9071 98.9003 64.7082L99.1923 63.7518ZM90.608 63.2507C87.7476 63.7694 85.0614 64.963 82.7863 66.7276L83.3992 67.5177C85.5457 65.8528 88.0826 64.7249 90.7864 64.2347L90.608 63.2507ZM82.7863 66.7276C80.5112 68.4922 78.7169 70.774 77.5629 73.3727L78.4768 73.7785C79.5628 71.333 81.2528 69.1826 83.3992 67.5177L82.7863 66.7276ZM77.5629 73.3727C76.4088 75.9715 75.931 78.8067 76.1722 81.6281L77.1686 81.5429C76.9418 78.8904 77.3909 76.224 78.4768 73.7785L77.5629 73.3727ZM76.1722 81.6281C76.4134 84.4494 77.366 87.1688 78.9449 89.5467L79.778 88.9935C78.291 86.7541 77.3953 84.1954 77.1686 81.5429L76.1722 81.6281ZM78.9449 89.5467C80.5238 91.9245 82.6801 93.8873 85.2227 95.2636L85.6987 94.3841C83.2979 93.0846 81.265 91.233 79.778 88.9935L78.9449 89.5467ZM85.2227 95.2636C87.7653 96.6398 90.6167 97.3875 93.5258 97.4418L93.5444 96.4419C90.794 96.3907 88.0996 95.6837 85.6987 94.3841L85.2227 95.2636ZM94.0351 96.9418V96.6332H93.0351V96.9418H94.0351ZM42.172 97.1332C45.6775 97.0982 49.0965 96.065 52.0045 94.1603L51.4566 93.3238C48.7101 95.1226 45.4782 96.1001 42.162 96.1332L42.172 97.1332ZM52.0045 94.1603C54.9126 92.2555 57.1825 89.5623 58.5301 86.4134L57.6108 86.02C56.342 88.9847 54.2029 91.525 51.4566 93.3238L52.0045 94.1603ZM58.5306 86.4123C59.4203 84.3189 59.8667 82.0725 59.8427 79.8072L58.8427 79.8178C58.8652 81.9445 58.4462 84.0541 57.6103 86.0212L58.5306 86.4123ZM59.8427 79.8125C59.8427 75.2138 57.9599 70.8067 54.6137 67.5596L53.9173 68.2773C57.0728 71.3393 58.8427 75.4889 58.8427 79.8125H59.8427ZM54.6137 67.5596C51.2679 64.3131 46.7333 62.4918 42.008 62.4918V63.4918C46.4776 63.4918 50.7612 65.2149 53.9173 68.2773L54.6137 67.5596ZM42.008 62.4918C37.2827 62.4918 32.748 64.3131 29.4023 67.5596L30.0987 68.2773C33.2547 65.2149 37.5383 63.4918 42.008 63.4918V62.4918ZM29.4023 67.5596C26.056 70.8067 24.1732 75.2138 24.1732 79.8125H25.1732C25.1732 75.4889 26.9431 71.3393 30.0987 68.2773L29.4023 67.5596ZM24.1732 79.8158C24.1882 82.0718 24.632 84.3054 25.4821 86.4044L26.4089 86.029C25.6061 84.0468 25.1873 81.9382 25.1732 79.8092L24.1732 79.8158ZM25.4826 86.4057C26.8096 89.6574 29.11 92.4457 32.0842 94.4121L32.6357 93.5779C29.8264 91.7205 27.6581 89.0899 26.4084 86.0278L25.4826 86.4057ZM32.0842 94.4121C35.0582 96.3784 38.57 97.4332 42.1658 97.4418L42.1682 96.4419C38.7657 96.4337 35.4452 95.4355 32.6357 93.5779L32.0842 94.4121ZM42.667 96.9418V96.6332H41.667V96.9418H42.667ZM98.4924 9.00454L93.5623 4.29784L92.8718 5.02114L97.8018 9.72784L98.4924 9.00454ZM93.217 4.15949H56.4006V5.15949H93.217V4.15949ZM55.9006 4.65949V25.0295H56.9006V4.65949H55.9006ZM56.2648 25.5107L101.669 38.3191L101.941 37.3567L56.5363 24.5483L56.2648 25.5107ZM102.301 37.7742L98.643 9.30248L97.6512 9.4299L101.309 37.9016L102.301 37.7742ZM129.095 67.4938C122.919 58.4452 114.289 51.2297 104.158 46.6416L103.746 47.5525C113.712 52.0662 122.198 59.1628 128.269 68.0575L129.095 67.4938ZM104.148 46.637C101.942 45.6977 99.6492 44.9648 97.3003 44.4482L97.0855 45.4249C99.374 45.9282 101.608 46.6421 103.756 47.5571L104.148 46.637ZM97.299 44.448L39.4105 31.871L39.1982 32.8482L97.0867 45.4252L97.299 44.448ZM39.4008 31.869C38.6713 31.7256 37.912 31.8549 37.2745 32.2329L37.7846 33.093C38.209 32.8413 38.7178 32.7539 39.2079 32.8502L39.4008 31.869ZM37.2745 32.2329C36.6367 32.6111 36.1659 33.212 35.9615 33.9181L36.922 34.1961C37.0542 33.7397 37.3606 33.3445 37.7846 33.093L37.2745 32.2329ZM35.9631 33.9125C35.8662 34.2335 35.8662 34.5751 35.9631 34.8961L36.9204 34.607C36.8804 34.4746 36.8804 34.3341 36.9204 34.2017L35.9631 33.9125ZM35.9419 34.7616C35.9547 35.4008 36.1963 36.0134 36.6218 36.4951L37.3712 35.833C37.1004 35.5264 36.9497 35.1404 36.9417 34.7415L35.9419 34.7616ZM36.6218 36.4951C37.0469 36.9764 37.6289 37.2968 38.2665 37.405L38.4338 36.4191C38.0175 36.3484 37.6424 36.14 37.3712 35.833L36.6218 36.4951ZM38.2368 37.399L89.2868 49.2815L89.5135 48.3075L38.4635 36.425L38.2368 37.399ZM89.2892 49.2821C95.6369 50.7267 101.5 53.7157 106.325 57.9659L106.986 57.2155C102.034 52.8536 96.0196 49.7883 89.5111 48.307L89.2892 49.2821ZM106.328 57.9682L107.838 59.2799L108.494 58.5248L106.983 57.2131L106.328 57.9682ZM107.841 59.2823C112.72 63.4574 116.995 68.2509 120.554 73.5333L121.383 72.9746C117.774 67.6168 113.438 62.7558 108.491 58.5225L107.841 59.2823ZM121.252 73.6655L128.409 68.7273L127.841 67.9043L120.685 72.8425L121.252 73.6655ZM128.473 68.6746L129.03 68.1345L128.333 67.4169L127.777 67.957L128.473 68.6746ZM153.333 69.5735L142.916 75.2061L143.392 76.0857L153.808 70.4531L153.333 69.5735ZM143.052 75.1564C142.778 75.2133 142.495 75.2133 142.222 75.1564L142.018 76.1354C142.426 76.2203 142.848 76.2203 143.256 76.1354L143.052 75.1564ZM142.119 75.1459C141.848 75.1466 141.583 75.0765 141.352 74.9439L140.855 75.8114C141.239 76.0319 141.677 76.1471 142.121 76.1459L142.119 75.1459ZM141.352 74.9439C141.121 74.8114 140.933 74.622 140.806 74.3973L139.935 74.8884C140.152 75.2725 140.47 75.5908 140.855 75.8114L141.352 74.9439ZM140.815 74.4138C140.641 74.075 140.605 73.6862 140.715 73.3243L139.758 73.0343C139.572 73.646 139.633 74.3031 139.926 74.872L140.815 74.4138ZM140.715 73.3244C140.825 72.9621 141.073 72.6495 141.415 72.4529L140.917 71.586C140.359 71.9066 139.943 72.423 139.758 73.0343L140.715 73.3244ZM141.396 72.4633L152.847 66.522L152.386 65.6344L140.936 71.5756L141.396 72.4633ZM153.116 66.0782V55.8932H152.116V66.0782H153.116ZM152.33 55.4832L130.224 70.915L130.797 71.735L152.903 56.3032L152.33 55.4832ZM130.219 70.9187L121.075 77.4772L121.658 78.2898L130.802 71.7313L130.219 70.9187ZM121.041 77.5036C120.55 77.9237 120.185 78.4671 119.986 79.0764L120.936 79.3868C121.077 78.9546 121.338 78.5659 121.691 78.2634L121.041 77.5036ZM119.986 79.0764C119.787 79.6858 119.762 80.3368 119.915 80.9589L120.886 80.7199C120.778 80.2795 120.795 79.8188 120.936 79.3868L119.986 79.0764ZM119.915 80.9589C120.069 81.5809 120.393 82.149 120.852 82.6029L121.555 81.892C121.225 81.5659 120.995 81.1605 120.886 80.7199L119.915 80.9589ZM120.852 82.6029C121.31 83.0567 121.886 83.3793 122.516 83.5381L122.76 82.5683C122.301 82.4527 121.885 82.2183 121.555 81.892L120.852 82.6029ZM122.517 83.5384L162.753 93.569L162.995 92.5987L122.759 82.5681L122.517 83.5384ZM163.338 92.8969L154.034 69.8263L153.107 70.2003L162.41 93.2709L163.338 92.8969ZM165.419 97.7134L165.174 98.6832L165.295 98.7134H165.419V97.7134ZM165.896 97.7134L166.142 96.7442L166.021 96.7134H165.896V97.7134ZM121.605 86.6797L121.849 85.71L121.83 85.7052L121.811 85.7012L121.605 86.6797ZM118.1 84.8557L117.414 85.5835L117.414 85.5835L118.1 84.8557ZM116.118 81.51L115.134 81.6877L115.14 81.7231L115.149 81.7579L116.118 81.51ZM116.213 78.6725L115.243 78.4297L115.243 78.4297L116.213 78.6725ZM117.47 76.1089L118.257 76.7256L118.688 76.1756L118.32 75.5819L117.47 76.1089ZM109.12 65.8467L109.81 65.1225L108.12 63.5139V65.8467H109.12ZM109.12 66.0782H108.12V66.4725L108.39 66.7608L109.12 66.0782ZM113.607 73.6246L112.657 73.9383L112.657 73.9383L113.607 73.6246ZM105.424 96.8848L105.979 97.7165L105.979 97.7165L105.424 96.8848ZM74.451 89.2259L75.3374 88.763L75.0569 88.2259H74.451V89.2259ZM61.2511 89.2259V88.2259H60.6344L60.3576 88.777L61.2511 89.2259ZM23.0829 89.2259L23.9764 88.777L23.6996 88.2259H23.0829V89.2259ZM52.5042 24.5666V25.5666H53.5042V24.5666H52.5042ZM94.2507 0.801533V1.80153H94.2717L94.2927 1.80065L94.2507 0.801533ZM95.0249 0.925714L95.3779 -0.00988922L95.3779 -0.00988923L95.0249 0.925714ZM95.6821 1.34164L94.986 2.05962L94.9904 2.06391L95.6821 1.34164ZM101.725 7.12858L102.439 6.42842L102.428 6.41719L102.417 6.40632L101.725 7.12858ZM102.282 8.28597L101.289 8.40179L101.29 8.41156L102.282 8.28597ZM106.814 44.0878L105.822 44.2134L105.892 44.7602L106.391 44.9936L106.814 44.0878ZM132.021 65.5381L131.193 66.0977L131.759 66.9369L132.591 66.3598L132.021 65.5381ZM153.491 50.6463L154.061 51.468L154.083 51.4526L154.105 51.436L153.491 50.6463ZM155.877 50.6463L155.263 51.436L155.331 51.4891L155.408 51.5296L155.877 50.6463ZM156.634 51.3573L157.488 50.8372L157.488 50.8371L156.634 51.3573ZM156.91 52.3438L155.91 52.341V52.3438H156.91ZM156.91 66.8498H155.91V67.0433L155.982 67.2228L156.91 66.8498ZM168.202 94.9357L167.274 95.3087L167.303 95.3805L167.342 95.447L168.202 94.9357ZM168.202 97.0962L168.904 97.8076L168.996 97.7176L169.061 97.6075L168.202 97.0962ZM167.134 97.7056L167.393 98.6715L167.393 98.6715L167.134 97.7056ZM93.0438 4.65869L93.7343 3.93539L93.4445 3.65869H93.0438V4.65869ZM97.9738 9.36539L98.9657 9.23797L98.9205 8.88667L98.6644 8.64209L97.9738 9.36539ZM56.2273 4.65869V3.65869H55.2273V4.65869H56.2273ZM56.2273 25.0287H55.2273V25.7856L55.9558 25.9911L56.2273 25.0287ZM101.632 37.8371L101.36 38.7996L102.816 39.2103L102.623 37.7097L101.632 37.8371ZM41.9938 96.6324L41.9838 95.6325L40.9938 95.6423V96.6324H41.9938ZM41.9938 96.941L41.9913 97.941L42.9938 97.9435V96.941H41.9938ZM25.7722 86.2159L24.8454 86.5913L24.8464 86.5938L25.7722 86.2159ZM24.5 79.8117L23.5 79.8117L23.5 79.8183L24.5 79.8117ZM29.5772 67.9177L28.8808 67.2L28.8808 67.2L29.5772 67.9177ZM54.0922 67.9177L54.7886 67.2L54.7886 67.2L54.0922 67.9177ZM59.1695 79.8117L58.1694 79.8117L58.1695 79.8223L59.1695 79.8117ZM57.8972 86.2159L58.8165 86.6094L58.8175 86.6071L57.8972 86.2159ZM93.3618 96.6324L93.3737 95.6325L92.3618 95.6205V96.6324H93.3618ZM102.896 93.9637L102.365 93.1165L102.365 93.1165L102.896 93.9637ZM93.3618 96.941L93.3432 97.9409L94.3618 97.9599V96.941H93.3618ZM98.873 64.2292L98.581 65.1856L98.581 65.1856L98.873 64.2292ZM106.005 68.4693L106.719 67.7686L106.713 67.7633L106.708 67.758L106.005 68.4693ZM110.484 77.0614L111.468 76.8818L111.468 76.8818L110.484 77.0614ZM109.318 86.6233L110.23 87.0329L110.23 87.0329L109.318 86.6233ZM128.508 67.7749L129.205 68.4925L129.809 67.9064L129.334 67.2112L128.508 67.7749ZM103.779 47.0962L104.191 46.1853L104.181 46.1806L104.17 46.1762L103.779 47.0962ZM127.952 68.315L128.52 69.1381L128.588 69.0907L128.648 69.0327L127.952 68.315ZM120.795 73.2532L119.966 73.8119L120.531 74.6506L121.363 74.0763L120.795 73.2532ZM107.993 58.9016L107.337 59.6567L107.343 59.6613L107.993 58.9016ZM106.482 57.5899L105.821 58.3403L105.827 58.345L106.482 57.5899ZM89.2269 48.7937L89.0002 49.7677L89.005 49.7688L89.2269 48.7937ZM38.1769 36.9112L37.6933 37.7865L37.8149 37.8537L37.9502 37.8852L38.1769 36.9112ZM36.8232 36.1633L36.0738 36.8253L36.1882 36.9549L36.3396 37.0385L36.8232 36.1633ZM36.2685 34.7508L37.2683 34.7306L37.2655 34.5932L37.2258 34.4616L36.2685 34.7508ZM36.2685 34.0563L37.2259 34.3455L37.2291 34.3344L36.2685 34.0563ZM37.3563 32.6622L37.1878 31.6764L37.0054 31.7076L36.8462 31.802L37.3563 32.6622ZM39.1311 32.3588L39.3434 31.3816L39.1539 31.3404L38.9627 31.3731L39.1311 32.3588ZM97.0196 44.9358L97.2344 43.9591L97.2319 43.9586L97.0196 44.9358ZM142.981 75.6451L143.184 76.6241L143.327 76.5943L143.456 76.5248L142.981 75.6451ZM153.397 70.0125L154.325 69.6385L153.906 68.6005L152.922 69.1329L153.397 70.0125ZM141.947 75.6451L142.151 74.6661L142.048 74.6448L141.944 74.6451L141.947 75.6451ZM140.197 74.6421L139.309 75.1003L139.317 75.1169L139.326 75.1332L140.197 74.6421ZM140.993 72.0186L140.532 71.131L140.513 71.1409L140.494 71.1517L140.993 72.0186ZM152.443 66.0774L152.904 66.965L153.443 66.6851V66.0774H152.443ZM152.443 55.8924H153.443V53.9747L151.871 55.0724L152.443 55.8924ZM130.337 71.3242L129.765 70.5042L129.754 70.5116L130.337 71.3242ZM121.193 77.8827L120.61 77.0701L120.575 77.0951L120.543 77.123L121.193 77.8827ZM120.228 80.8386L119.257 81.0776L119.257 81.0776L120.228 80.8386ZM122.465 83.0524L122.221 84.0221L122.223 84.0227L122.465 83.0524ZM162.701 93.0831L162.459 94.0534L164.362 94.5277L163.628 92.7091L162.701 93.0831ZM165.419 98.7134H165.896V96.7134H165.419V98.7134ZM121.36 87.6494L165.174 98.6832L165.663 96.7437L121.849 85.71L121.36 87.6494ZM117.414 85.5835C118.52 86.6249 119.9 87.3423 121.398 87.6582L121.811 85.7012C120.667 85.4601 119.62 84.9138 118.786 84.1278L117.414 85.5835ZM115.149 81.7579C115.523 83.2171 116.309 84.5418 117.414 85.5835L118.786 84.1278C117.952 83.3422 117.365 82.3488 117.087 81.2622L115.149 81.7579ZM115.243 78.4297C114.976 79.4966 114.939 80.606 115.134 81.6877L117.102 81.3323C116.957 80.5299 116.985 79.7072 117.183 78.9153L115.243 78.4297ZM116.683 75.4922C116 76.3629 115.51 77.3629 115.243 78.4297L117.183 78.9153C117.381 78.1233 117.746 77.3776 118.257 76.7256L116.683 75.4922ZM108.431 66.5709C111.589 69.5773 114.34 72.9594 116.62 76.6359L118.32 75.5819C115.949 71.7597 113.09 68.2453 109.81 65.1225L108.431 66.5709ZM110.12 66.0782V65.8467H108.12V66.0782H110.12ZM114.556 73.311C113.586 70.375 111.982 67.6765 109.851 65.3956L108.39 66.7608C110.325 68.8326 111.779 71.2801 112.657 73.9383L114.556 73.311ZM115.47 82.4148C115.838 79.3512 115.526 76.247 114.556 73.311L112.657 73.9383C113.535 76.5964 113.817 79.405 113.485 82.1765L115.47 82.4148ZM112.427 91.0678C114.064 88.4286 115.103 85.4783 115.47 82.4148L113.485 82.1765C113.152 84.948 112.212 87.62 110.727 90.0132L112.427 91.0678ZM105.979 97.7165C108.59 95.9733 110.789 93.7069 112.427 91.0678L110.727 90.0132C109.242 92.4066 107.245 94.4665 104.868 96.0532L105.979 97.7165ZM97.2889 101.179C100.405 100.64 103.368 99.4597 105.979 97.7165L104.868 96.0532C102.492 97.6399 99.7913 98.7164 96.9477 99.2087L97.2889 101.179ZM87.9059 100.847C90.9737 101.606 94.1727 101.719 97.2889 101.179L96.9477 99.2087C94.1041 99.7011 91.1847 99.5977 88.386 98.9056L87.9059 100.847ZM79.4974 96.7779C81.971 98.7017 84.8381 100.089 87.9059 100.847L88.386 98.9056C85.5874 98.2135 82.9755 96.9492 80.7252 95.1992L79.4974 96.7779ZM73.5646 89.6889C75.0002 92.4375 77.0236 94.8541 79.4974 96.7779L80.7252 95.1992C78.4749 93.4492 76.6385 91.2543 75.3374 88.763L73.5646 89.6889ZM61.2511 90.2259H74.451V88.2259H61.2511V90.2259ZM53.938 98.5234C57.4703 96.3812 60.3152 93.3163 62.1447 89.6749L60.3576 88.777C58.6997 92.0769 56.1172 94.8627 52.9009 96.8133L53.938 98.5234ZM42.167 101.8C46.3274 101.8 50.406 100.665 53.938 98.5234L52.9009 96.8133C49.6843 98.7641 45.9649 99.7998 42.167 99.7998V101.8ZM30.396 98.5234C33.928 100.665 38.0066 101.8 42.167 101.8V99.7998C38.3691 99.7998 34.6497 98.7641 31.4331 96.8133L30.396 98.5234ZM22.1893 89.6749C24.0188 93.3163 26.8638 96.3812 30.396 98.5234L31.4331 96.8133C28.2168 94.8627 25.6343 92.0769 23.9764 88.777L22.1893 89.6749ZM16.4034 90.2259H23.0829V88.2259H16.4034V90.2259ZM4.46163 85.4237C7.63379 88.5018 11.9299 90.2259 16.4034 90.2259V88.2259C12.4412 88.2259 8.64719 86.6983 5.85441 83.9884L4.46163 85.4237ZM-0.5 73.7941C-0.5 78.162 1.28846 82.3446 4.46163 85.4237L5.85441 83.9884C3.06265 81.2794 1.5 77.6118 1.5 73.7941H-0.5ZM-0.5 38.1466V73.7941H1.5V38.1466H-0.5ZM3.90266 27.8264C1.08737 30.5582 -0.5 34.2698 -0.5 38.1466H1.5C1.5 34.82 2.86157 31.6234 5.29543 29.2617L3.90266 27.8264ZM14.495 23.5666C10.5277 23.5666 6.71692 25.0956 3.90266 27.8264L5.29543 29.2617C7.73031 26.899 11.039 25.5666 14.495 25.5666V23.5666ZM52.5042 23.5666H14.495V25.5666H52.5042V23.5666ZM51.5042 2.73051V24.5666H53.5042V2.73051H51.5042ZM52.3901 0.648847C51.8266 1.19567 51.5042 1.94383 51.5042 2.73051H53.5042C53.5042 2.494 53.6008 2.26087 53.7829 2.08418L52.3901 0.648847ZM54.4922 -0.198467C53.7093 -0.198467 52.9526 0.103027 52.3901 0.648847L53.7829 2.08418C53.966 1.9065 54.2206 1.80153 54.4922 1.80153V-0.198467ZM94.2507 -0.198467H54.4922V1.80153H94.2507V-0.198467ZM95.3779 -0.00988923C95.005 -0.150614 94.607 -0.21429 94.2088 -0.197589L94.2927 1.80065C94.4227 1.7952 94.5519 1.81609 94.6718 1.86132L95.3779 -0.00988923ZM96.3781 0.623687C96.0918 0.346048 95.7509 0.130856 95.3779 -0.00988922L94.6718 1.86132C94.7916 1.90653 94.8983 1.97461 94.986 2.0596L96.3781 0.623687ZM102.417 6.40632L96.3737 0.619383L94.9904 2.06391L101.034 7.85084L102.417 6.40632ZM103.275 8.17015C103.199 7.51206 102.903 6.90103 102.439 6.42842L101.011 7.82875C101.169 7.98944 101.264 8.1912 101.289 8.40178L103.275 8.17015ZM107.807 43.9622L103.274 8.16037L101.29 8.41156L105.822 44.2134L107.807 43.9622ZM132.85 64.9785C126.509 55.587 117.654 48.053 107.238 43.182L106.391 44.9936C116.484 49.7139 125.057 57.0109 131.193 66.0977L132.85 64.9785ZM152.921 49.8247L131.451 64.7164L132.591 66.3598L154.061 51.468L152.921 49.8247ZM154.684 49.2401C154.031 49.2401 153.394 49.4557 152.878 49.8567L154.105 51.436C154.265 51.3111 154.47 51.2401 154.684 51.2401V49.2401ZM156.49 49.8567C155.974 49.4557 155.337 49.2401 154.684 49.2401V51.2401C154.898 51.2401 155.102 51.3111 155.263 51.436L156.49 49.8567ZM157.488 50.8371C157.211 50.3825 156.815 50.0125 156.345 49.7631L155.408 51.5296C155.565 51.6133 155.693 51.7345 155.78 51.8774L157.488 50.8371ZM157.91 52.3467C157.912 51.8136 157.765 51.2921 157.488 50.8372L155.78 51.8773C155.867 52.0199 155.911 52.18 155.91 52.341L157.91 52.3467ZM157.91 66.8498V52.3438H155.91V66.8498H157.91ZM169.13 94.5627L157.838 66.4768L155.982 67.2228L167.274 95.3087L169.13 94.5627ZM169.5 96.0159C169.5 95.4552 169.348 94.9062 169.061 94.4244L167.342 95.447C167.446 95.622 167.5 95.8181 167.5 96.0159H169.5ZM169.061 97.6075C169.348 97.1256 169.5 96.5766 169.5 96.0159H167.5C167.5 96.2137 167.446 96.4098 167.342 96.5848L169.061 97.6075ZM167.393 98.6715C167.963 98.5189 168.485 98.222 168.904 97.8076L167.499 96.3848C167.33 96.5519 167.115 96.6754 166.876 96.7396L167.393 98.6715ZM165.65 98.6827C166.222 98.828 166.823 98.8242 167.393 98.6715L166.876 96.7396C166.636 96.8037 166.383 96.8053 166.142 96.7442L165.65 98.6827ZM92.3532 5.38199L97.2833 10.0887L98.6644 8.64209L93.7343 3.93539L92.3532 5.38199ZM56.2273 5.65869H93.0438V3.65869H56.2273V5.65869ZM57.2273 25.0287V4.65869H55.2273V25.0287H57.2273ZM101.903 36.8747L56.4988 24.0663L55.9558 25.9911L101.36 38.7996L101.903 36.8747ZM96.982 9.49282L100.64 37.9646L102.623 37.7097L98.9657 9.23797L96.982 9.49282ZM42.0037 97.6324C45.604 97.5964 49.1164 96.5354 52.1052 94.5778L51.0094 92.9047C48.3437 94.6507 45.2052 95.6003 41.9838 95.6325L42.0037 97.6324ZM42.9938 96.941V96.6324H40.9938V96.941H42.9938ZM31.6352 94.8284C34.6914 96.8491 38.2988 97.9321 41.9913 97.941L41.9962 95.9411C38.6903 95.9331 35.4654 94.9632 32.7382 93.1601L31.6352 94.8284ZM24.8464 86.5938C26.2121 89.9403 28.5786 92.8075 31.6352 94.8284L32.7382 93.1601C30.0113 91.3571 27.9091 88.8054 26.6981 85.8381L24.8464 86.5938ZM23.5 79.8183C23.5154 82.1378 23.9717 84.434 24.8454 86.5913L26.6991 85.8406C25.92 83.9166 25.5137 81.8706 25.5 79.8051L23.5 79.8183ZM28.8808 67.2C25.4392 70.5396 23.5 75.0755 23.5 79.8117H25.5C25.5 75.6257 27.2134 71.6048 30.2736 68.6353L28.8808 67.2ZM41.8347 61.991C36.9816 61.991 32.3214 63.8615 28.8808 67.2L30.2736 68.6353C33.3348 65.6649 37.4929 63.991 41.8347 63.991V61.991ZM54.7886 67.2C51.348 63.8615 46.6878 61.991 41.8347 61.991V63.991C46.1765 63.991 50.3346 65.6649 53.3958 68.6353L54.7886 67.2ZM60.1695 79.8117C60.1695 75.0755 58.2302 70.5396 54.7886 67.2L53.3958 68.6353C56.456 71.6048 58.1695 75.6257 58.1695 79.8117H60.1695ZM58.8175 86.6071C59.7341 84.4504 60.1941 82.1357 60.1694 79.8011L58.1695 79.8223C58.1913 81.8797 57.786 83.921 56.9769 85.8248L58.8175 86.6071ZM52.1052 94.5778C55.0943 92.6199 57.4296 89.8504 58.8165 86.6094L56.9778 85.8225C55.7485 88.6951 53.6747 91.1589 51.0094 92.9047L52.1052 94.5778ZM93.35 97.6323C96.9196 97.6746 100.425 96.6942 103.427 94.8108L102.365 93.1165C99.6905 94.794 96.5629 95.6702 93.3737 95.6325L93.35 97.6323ZM94.3618 96.941V96.6324H92.3618V96.941H94.3618ZM84.8114 95.7025C87.4248 97.117 90.3547 97.8852 93.3432 97.9409L93.3805 95.9412C90.7095 95.8914 88.0935 95.2048 85.7635 93.9436L84.8114 95.7025ZM78.3551 89.8224C79.9799 92.2694 82.1979 94.2879 84.8114 95.7025L85.7635 93.9436C83.4335 92.6825 81.4623 90.8864 80.0213 88.7161L78.3551 89.8224ZM75.5008 81.6698C75.7491 84.5755 76.7302 87.3753 78.3551 89.8224L80.0213 88.7161C78.5803 86.546 77.713 84.0677 77.4935 81.4995L75.5008 81.6698ZM76.9326 73.169C75.7445 75.8445 75.2524 78.7641 75.5008 81.6698L77.4935 81.4995C77.274 78.9314 77.7086 76.3495 78.7605 73.9807L76.9326 73.169ZM82.3066 66.3317C79.9672 68.1462 78.1207 70.4936 76.9326 73.169L78.7605 73.9807C79.8125 71.6117 81.4503 69.527 83.5324 67.912L82.3066 66.3317ZM90.3455 62.758C87.4069 63.2908 84.6459 64.5172 82.3066 66.3317L83.5324 67.912C85.6147 66.297 88.0768 65.2019 90.7023 64.7259L90.3455 62.758ZM99.1651 63.2728C96.3127 62.4018 93.2841 62.2252 90.3455 62.758L90.7023 64.7259C93.3279 64.2498 96.0339 64.4079 98.581 65.1856L99.1651 63.2728ZM106.708 67.758C104.608 65.6833 102.018 64.1439 99.1651 63.2728L98.581 65.1856C101.128 65.9634 103.436 67.3363 105.302 69.1806L106.708 67.758ZM111.468 76.8818C110.842 73.4529 109.188 70.2833 106.719 67.7686L105.292 69.17C107.485 71.4034 108.947 74.2114 109.5 77.2409L111.468 76.8818ZM110.23 87.0329C111.662 83.8425 112.093 80.311 111.468 76.8818L109.5 77.2409C110.053 80.2702 109.673 83.391 108.406 86.2138L110.23 87.0329ZM103.427 94.8108C106.43 92.9272 108.798 90.2229 110.23 87.0329L108.406 86.2138C107.138 89.0369 105.038 91.4393 102.365 93.1165L103.427 94.8108ZM129.334 67.2112C123.106 58.0855 114.404 50.8106 104.191 46.1853L103.366 48.0072C113.251 52.4837 121.665 59.5208 127.682 68.3386L129.334 67.2112ZM128.648 69.0327L129.205 68.4925L127.812 67.0572L127.255 67.5973L128.648 69.0327ZM121.363 74.0763L128.52 69.1381L127.384 67.4919L120.227 72.4301L121.363 74.0763ZM107.343 59.6613C112.187 63.8074 116.433 68.5672 119.966 73.8119L121.625 72.6945C117.99 67.299 113.624 62.4042 108.643 58.1418L107.343 59.6613ZM105.827 58.345L107.337 59.6567L108.649 58.1465L107.138 56.8348L105.827 58.345ZM89.005 49.7688C95.2723 51.1952 101.059 54.146 105.821 58.3403L107.143 56.8395C102.127 52.4217 96.0377 49.3182 89.4489 47.8187L89.005 49.7688ZM37.9502 37.8852L89.0002 49.7677L89.4536 47.8198L38.4036 35.9372L37.9502 37.8852ZM36.3396 37.0385L37.6933 37.7865L38.6605 36.0359L37.3069 35.288L36.3396 37.0385ZM35.2687 34.7709C35.284 35.5302 35.571 36.2562 36.0738 36.8253L37.5727 35.5012C37.3791 35.2821 37.2739 35.0094 37.2683 34.7306L35.2687 34.7709ZM35.3112 33.7672C35.1858 34.1825 35.1858 34.6246 35.3112 35.0399L37.2258 34.4616C37.2143 34.4235 37.2143 34.3836 37.2258 34.3455L35.3112 33.7672ZM36.8462 31.802C36.1014 32.2437 35.5485 32.9474 35.3079 33.7783L37.2291 34.3344C37.3251 34.0027 37.5493 33.7103 37.8664 33.5223L36.8462 31.802ZM38.9627 31.3731L37.1878 31.6764L37.5248 33.6479L39.2996 33.3445L38.9627 31.3731ZM97.2319 43.9586L39.3434 31.3816L38.9188 33.336L96.8073 45.913L97.2319 43.9586ZM104.17 46.1762C101.936 45.2247 99.6135 44.4823 97.2344 43.9591L96.8049 45.9124C99.0631 46.409 101.267 47.1136 103.387 48.0163L104.17 46.1762ZM143.456 76.5248L153.873 70.8921L152.922 69.1329L142.505 74.7655L143.456 76.5248ZM141.743 76.6242C142.218 76.723 142.709 76.723 143.184 76.6241L142.777 74.6661C142.571 74.709 142.357 74.709 142.151 74.6661L141.743 76.6242ZM140.433 76.2444C140.894 76.5089 141.418 76.6465 141.949 76.6451L141.944 74.6451C141.761 74.6456 141.582 74.5979 141.428 74.5093L140.433 76.2444ZM139.326 75.1332C139.588 75.597 139.971 75.9798 140.433 76.2444L141.428 74.5093C141.273 74.4209 141.15 74.296 141.069 74.1509L139.326 75.1332ZM139.106 72.8884C138.883 73.6251 138.956 74.4163 139.309 75.1003L141.086 74.1838C140.971 73.9602 140.948 73.7055 141.02 73.4686L139.106 72.8884ZM140.494 71.1517C139.829 71.5344 139.329 72.1526 139.106 72.8884L141.02 73.4686C141.092 73.2309 141.257 73.0202 141.491 72.8856L140.494 71.1517ZM151.983 65.1897L140.532 71.131L141.453 72.9063L152.904 66.965L151.983 65.1897ZM151.443 55.8924V66.0774H153.443V55.8924H151.443ZM130.91 72.1442L153.015 56.7123L151.871 55.0724L129.765 70.5042L130.91 72.1442ZM121.776 78.6953L130.92 72.1368L129.754 70.5116L120.61 77.0701L121.776 78.6953ZM121.238 79.5412C121.351 79.1976 121.558 78.8863 121.843 78.6425L120.543 77.123C119.983 77.6018 119.565 78.2225 119.337 78.9204L121.238 79.5412ZM121.199 80.5997C121.113 80.25 121.126 79.8845 121.238 79.5412L119.337 78.9204C119.109 79.6185 119.081 80.3646 119.257 81.0776L121.199 80.5997ZM121.733 81.5358C121.468 81.2736 121.285 80.9495 121.199 80.5996L119.257 81.0776C119.432 81.7904 119.803 82.4397 120.327 82.9575L121.733 81.5358ZM122.709 82.0827C122.335 81.9885 121.999 81.7983 121.733 81.5358L120.327 82.9575C120.85 83.4751 121.505 83.8419 122.221 84.0221L122.709 82.0827ZM162.943 92.1128L122.707 82.0821L122.223 84.0227L162.459 94.0534L162.943 92.1128ZM152.47 70.3865L161.773 93.4571L163.628 92.7091L154.325 69.6385L152.47 70.3865Z" fill="black" mask="url(#path-1-inside-1_121_335)"/>
</svg>
