<svg width="245" height="100" viewBox="0 0 245 100" fill="none" xmlns="http://www.w3.org/2000/svg">
<mask id="path-1-inside-1_121_332" fill="white">
<path d="M39.2878 80.8429C39.3582 81.1512 39.3671 81.4704 39.3138 81.7821C39.2606 82.0938 39.1462 82.3918 38.9775 82.659C38.8087 82.9261 38.5888 83.1571 38.3305 83.3387C38.0722 83.5202 37.7807 83.6486 37.4726 83.7165H36.9949C36.4533 83.7156 35.9269 83.5374 35.4957 83.2088C35.0646 82.8803 34.7523 82.4195 34.6065 81.8966C34.4652 81.0205 34.0175 80.2235 33.3436 79.6483C32.6696 79.0731 31.8134 78.7572 30.9284 78.7572C30.0433 78.7572 29.1871 79.0731 28.5131 79.6483C27.8392 80.2235 27.3915 81.0205 27.2502 81.8966C27.0916 82.5077 26.7074 83.0356 26.1753 83.3735C25.6432 83.7114 25.0029 83.834 24.3841 83.7165C24.076 83.6486 23.7845 83.5202 23.5262 83.3387C23.2679 83.1571 23.048 82.9261 22.8792 82.659C22.7105 82.3918 22.5961 82.0938 22.5429 81.7821C22.4896 81.4704 22.4985 81.1512 22.5689 80.8429C23.0207 78.9612 24.091 77.2867 25.6073 76.089C27.1237 74.8913 28.9979 74.24 30.9284 74.24C32.8588 74.24 34.733 74.8913 36.2494 76.089C37.7657 77.2867 38.836 78.9612 39.2878 80.8429ZM165.969 74.4253C164.021 74.437 162.133 75.1042 160.609 76.3201C159.084 77.5359 158.011 79.2299 157.562 81.1303C157.423 81.7527 157.535 82.4051 157.876 82.944C158.216 83.4829 158.756 83.8641 159.377 84.0038C159.998 84.1436 160.649 84.0303 161.186 83.689C161.724 83.3477 162.104 82.8063 162.243 82.1839C162.438 81.3394 162.912 80.586 163.589 80.0467C164.265 79.5074 165.105 79.214 165.969 79.2146C166.829 79.2306 167.66 79.5301 168.333 80.0668C169.007 80.6034 169.485 81.3475 169.695 82.1839C169.803 82.7168 170.089 83.1969 170.506 83.5451C170.923 83.8932 171.446 84.0888 171.988 84.0996H172.561C172.867 84.033 173.156 83.9043 173.411 83.7213C173.665 83.5384 173.88 83.3051 174.041 83.0358C174.202 82.7666 174.306 82.4671 174.348 82.1558C174.389 81.8446 174.366 81.5281 174.281 81.2261C173.854 79.3237 172.803 77.6199 171.296 76.387C169.789 75.1541 167.914 74.4634 165.969 74.4253ZM203.133 74.4253C201.197 74.4415 199.323 75.1123 197.814 76.3291C196.306 77.546 195.251 79.2377 194.821 81.1303C194.704 81.7507 194.826 82.3927 195.163 82.9261C195.5 83.4596 196.027 83.8448 196.636 84.0038C197.255 84.1213 197.895 83.9987 198.427 83.6609C198.96 83.323 199.344 82.7951 199.502 82.1839C199.677 81.3472 200.133 80.5959 200.794 80.0555C201.455 79.5151 202.28 79.2183 203.133 79.2146C204.002 79.1961 204.85 79.4828 205.53 80.025C206.211 80.5673 206.681 81.331 206.859 82.1839C207.004 82.7068 207.317 83.1677 207.748 83.4962C208.179 83.8247 208.706 84.003 209.247 84.0038H209.725C210.033 83.9359 210.324 83.8075 210.583 83.626C210.841 83.4445 211.061 83.2135 211.23 82.9463C211.398 82.6792 211.513 82.3811 211.566 82.0694C211.619 81.7577 211.61 81.4385 211.54 81.1303C211.199 79.1519 210.165 77.3605 208.623 76.0787C207.082 74.7968 205.135 74.1086 203.133 74.1379V74.4253ZM31.1672 100C28.9214 99.9875 26.7002 99.5316 24.6301 98.6583C22.5601 97.785 20.682 96.5115 19.1028 94.9105C17.5237 93.3095 16.2746 91.4123 15.4268 89.3273C14.579 87.2423 14.1491 85.0102 14.1617 82.7586C14.1617 82.7586 14.1617 82.2797 14.1617 81.8966H10.5313L2.12412 78.7356C1.65358 78.5616 1.24659 78.2489 0.956701 77.8386C0.666811 77.4283 0.507595 76.9396 0.5 76.4368V45.5939C0.5 43.0535 1.50654 40.6171 3.2982 38.8208C5.08985 37.0245 7.51986 36.0153 10.0536 36.0153H35.5619L46.2619 14.1762C46.4624 13.7658 46.7758 13.4214 47.1652 13.1838C47.5545 12.9462 48.0036 12.8253 48.4593 12.8353H80.464C81.0974 12.8353 81.7049 13.0875 82.1528 13.5366C82.6008 13.9857 82.8524 14.5948 82.8524 15.2299V38.41V65.9004H144.856L148.39 60.8237C148.65 60.3382 149.062 59.9526 149.564 59.7273C150.065 59.502 150.627 59.4497 151.161 59.5785H217.272C217.657 59.5782 218.036 59.664 218.383 59.8298C218.731 59.9955 219.036 60.2369 219.278 60.5364L226.253 70.115C226.374 70.5862 226.374 71.0805 226.253 71.5517V79.1188C226.253 79.7539 226.001 80.363 225.553 80.812C225.105 81.2611 224.498 81.5134 223.864 81.5134H220.043C220.043 81.5134 220.043 82.0881 220.043 82.3755C220.043 86.9228 218.241 91.2838 215.034 94.4993C211.827 97.7147 207.477 99.5211 202.942 99.5211C198.406 99.5211 194.056 97.7147 190.849 94.4993C187.642 91.2838 185.841 86.9228 185.841 82.3755C185.841 82.3755 185.841 81.8966 185.841 81.5134H182.592C182.636 81.9274 182.636 82.3447 182.592 82.7586C182.592 87.3059 180.791 91.667 177.584 94.8824C174.377 98.0978 170.027 99.9042 165.491 99.9042C160.956 99.9042 156.606 98.0978 153.399 94.8824C150.192 91.667 148.39 87.3059 148.39 82.7586C148.39 82.7586 148.39 81.9924 148.39 81.5134H144.473V88.3142C144.473 88.9493 144.222 89.5584 143.774 90.0074C143.326 90.4565 142.718 90.7088 142.085 90.7088H55.6245C54.9911 90.7088 54.3836 90.4565 53.9356 90.0074C53.4877 89.5584 53.2361 88.9493 53.2361 88.3142V81.6092H47.8861C47.8861 81.6092 47.8861 82.1839 47.8861 82.4713C47.861 87.0362 46.0412 91.407 42.8216 94.635C39.602 97.8629 35.2426 99.6875 30.6895 99.7127L31.1672 100ZM139.697 81.6092H57.9174V85.9195H139.697V81.6092ZM177.911 82.8544C178.086 81.969 178.086 81.0578 177.911 80.1724C177.303 77.4526 175.789 75.0217 173.618 73.2805C171.447 71.5393 168.749 70.5917 165.969 70.5939C163.208 70.5822 160.528 71.5303 158.385 73.2767C156.243 75.0231 154.77 77.4599 154.218 80.1724C153.836 81.1489 153.642 82.1888 153.645 83.2375C153.645 86.5146 154.943 89.6575 157.255 91.9748C159.566 94.2921 162.7 95.5939 165.969 95.5939C169.238 95.5939 172.372 94.2921 174.684 91.9748C176.995 89.6575 178.293 86.5146 178.293 83.2375L177.911 82.8544ZM215.17 82.8544C215.33 82.032 215.33 81.1864 215.17 80.364C214.571 77.6362 213.06 75.1955 210.888 73.4458C208.717 71.6961 206.014 70.7423 203.228 70.7423C200.442 70.7423 197.74 71.6961 195.568 73.4458C193.397 75.1955 191.886 77.6362 191.286 80.364C191.14 81.252 191.14 82.158 191.286 83.046C191.286 84.6686 191.605 86.2754 192.224 87.7745C192.844 89.2737 193.751 90.6358 194.896 91.7832C196.04 92.9306 197.399 93.8408 198.894 94.4617C200.389 95.0827 201.992 95.4023 203.61 95.4023C205.229 95.4023 206.831 95.0827 208.327 94.4617C209.822 93.8408 211.181 92.9306 212.325 91.7832C213.469 90.6358 214.377 89.2737 214.996 87.7745C215.616 86.2754 215.935 84.6686 215.935 83.046L215.17 82.8544ZM78.3622 17.2414H70.0505V35.6322H78.3622V17.2414ZM41.103 35.6322H65.1782V17.2414H50.1789L41.103 35.6322ZM43.1092 82.4713C43.269 81.6489 43.269 80.8033 43.1092 79.9808C42.5096 77.2531 40.9989 74.8124 38.8273 73.0627C36.6556 71.313 33.9532 70.3592 31.1672 70.3592C28.3812 70.3592 25.6788 71.313 23.5071 73.0627C21.3354 74.8124 19.8248 77.2531 19.2251 79.9808C19.079 80.8688 19.079 81.7748 19.2251 82.6628C19.2251 85.9399 20.5236 89.0828 22.8348 91.4001C25.146 93.7173 28.2808 95.0192 31.5493 95.0192C34.8179 95.0192 37.9526 93.7173 40.2639 91.4001C42.5751 89.0828 43.8735 85.9399 43.8735 82.6628L43.1092 82.4713ZM87.9158 54.3104V4.78927H67.6621C67.0287 4.78927 66.4211 4.53698 65.9732 4.0879C65.5253 3.63882 65.2737 3.02973 65.2737 2.39464C65.2737 1.75954 65.5253 1.15045 65.9732 0.701371C66.4211 0.25229 67.0287 0 67.6621 0H90.3042C90.9377 0 91.5452 0.25229 91.9931 0.701371C92.441 1.15045 92.6926 1.75954 92.6926 2.39464V4.02299H242.112C242.745 4.02299 243.353 4.27528 243.8 4.72436C244.248 5.17344 244.5 5.78253 244.5 6.41763V54.3104C244.5 54.9454 244.248 55.5545 243.8 56.0036C243.353 56.4527 242.745 56.705 242.112 56.705H90.3042C89.9906 56.705 89.68 56.643 89.3902 56.5227C89.1004 56.4024 88.8372 56.226 88.6154 56.0036C88.3936 55.7813 88.2177 55.5173 88.0976 55.2267C87.9776 54.9362 87.9158 54.6248 87.9158 54.3104ZM105.112 12.4521C104.479 12.4521 103.871 12.7044 103.424 13.1535C102.976 13.6026 102.724 14.2116 102.724 14.8467V41.4751C102.724 42.1102 102.976 42.7193 103.424 43.1684C103.871 43.6174 104.479 43.8697 105.112 43.8697C105.746 43.8697 106.353 43.6174 106.801 43.1684C107.249 42.7193 107.501 42.1102 107.501 41.4751V14.8467C107.501 14.2116 107.249 13.6026 106.801 13.1535C106.353 12.7044 105.746 12.4521 105.112 12.4521ZM133.773 12.4521C133.14 12.4521 132.532 12.7044 132.084 13.1535C131.637 13.6026 131.385 14.2116 131.385 14.8467V41.4751C131.385 42.1102 131.637 42.7193 132.084 43.1684C132.532 43.6174 133.14 43.8697 133.773 43.8697C134.407 43.8697 135.014 43.6174 135.462 43.1684C135.91 42.7193 136.162 42.1102 136.162 41.4751V14.8467C136.162 14.2116 135.91 13.6026 135.462 13.1535C135.014 12.7044 134.407 12.4521 133.773 12.4521ZM162.434 12.4521C161.801 12.4521 161.193 12.7044 160.745 13.1535C160.297 13.6026 160.046 14.2116 160.046 14.8467V41.4751C160.046 42.1102 160.297 42.7193 160.745 43.1684C161.193 43.6174 161.801 43.8697 162.434 43.8697C163.068 43.8697 163.675 43.6174 164.123 43.1684C164.571 42.7193 164.823 42.1102 164.823 41.4751V14.8467C164.823 14.2116 164.571 13.6026 164.123 13.1535C163.675 12.7044 163.068 12.4521 162.434 12.4521ZM191.095 12.4521C190.462 12.4521 189.854 12.7044 189.406 13.1535C188.958 13.6026 188.707 14.2116 188.707 14.8467V41.4751C188.707 42.1102 188.958 42.7193 189.406 43.1684C189.854 43.6174 190.462 43.8697 191.095 43.8697C191.729 43.8697 192.336 43.6174 192.784 43.1684C193.232 42.7193 193.484 42.1102 193.484 41.4751V14.8467C193.484 14.2279 193.246 13.6329 192.818 13.1865C192.391 12.74 191.807 12.4769 191.191 12.4521H191.095ZM219.756 12.4521C219.123 12.4521 218.515 12.7044 218.067 13.1535C217.619 13.6026 217.368 14.2116 217.368 14.8467V41.4751C217.368 42.1102 217.619 42.7193 218.067 43.1684C218.515 43.6174 219.123 43.8697 219.756 43.8697C220.39 43.8697 220.997 43.6174 221.445 43.1684C221.893 42.7193 222.144 42.1102 222.144 41.4751V14.8467C222.145 14.2279 221.907 13.6329 221.479 13.1865C221.052 12.74 220.468 12.4769 219.852 12.4521H219.756ZM53.7138 52.0115H62.5987C63.2321 52.0115 63.8396 51.7592 64.2875 51.3101C64.7354 50.861 64.9871 50.2519 64.9871 49.6169C64.9871 48.9818 64.7354 48.3727 64.2875 47.9236C63.8396 47.4745 63.2321 47.2222 62.5987 47.2222H53.7138C53.0803 47.2222 52.4728 47.4745 52.0249 47.9236C51.577 48.3727 51.3254 48.9818 51.3254 49.6169C51.3254 50.2519 51.577 50.861 52.0249 51.3101C52.4728 51.7592 53.0803 52.0115 53.7138 52.0115Z"/>
</mask>
<path d="M39.2878 80.8429C39.3582 81.1512 39.3671 81.4704 39.3138 81.7821C39.2606 82.0938 39.1462 82.3918 38.9775 82.659C38.8087 82.9261 38.5888 83.1571 38.3305 83.3387C38.0722 83.5202 37.7807 83.6486 37.4726 83.7165H36.9949C36.4533 83.7156 35.9269 83.5374 35.4957 83.2088C35.0646 82.8803 34.7523 82.4195 34.6065 81.8966C34.4652 81.0205 34.0175 80.2235 33.3436 79.6483C32.6696 79.0731 31.8134 78.7572 30.9284 78.7572C30.0433 78.7572 29.1871 79.0731 28.5131 79.6483C27.8392 80.2235 27.3915 81.0205 27.2502 81.8966C27.0916 82.5077 26.7074 83.0356 26.1753 83.3735C25.6432 83.7114 25.0029 83.834 24.3841 83.7165C24.076 83.6486 23.7845 83.5202 23.5262 83.3387C23.2679 83.1571 23.048 82.9261 22.8792 82.659C22.7105 82.3918 22.5961 82.0938 22.5429 81.7821C22.4896 81.4704 22.4985 81.1512 22.5689 80.8429C23.0207 78.9612 24.091 77.2867 25.6073 76.089C27.1237 74.8913 28.9979 74.24 30.9284 74.24C32.8588 74.24 34.733 74.8913 36.2494 76.089C37.7657 77.2867 38.836 78.9612 39.2878 80.8429ZM165.969 74.4253C164.021 74.437 162.133 75.1042 160.609 76.3201C159.084 77.5359 158.011 79.2299 157.562 81.1303C157.423 81.7527 157.535 82.4051 157.876 82.944C158.216 83.4829 158.756 83.8641 159.377 84.0038C159.998 84.1436 160.649 84.0303 161.186 83.689C161.724 83.3477 162.104 82.8063 162.243 82.1839C162.438 81.3394 162.912 80.586 163.589 80.0467C164.265 79.5074 165.105 79.214 165.969 79.2146C166.829 79.2306 167.66 79.5301 168.333 80.0668C169.007 80.6034 169.485 81.3475 169.695 82.1839C169.803 82.7168 170.089 83.1969 170.506 83.5451C170.923 83.8932 171.446 84.0888 171.988 84.0996H172.561C172.867 84.033 173.156 83.9043 173.411 83.7213C173.665 83.5384 173.88 83.3051 174.041 83.0358C174.202 82.7666 174.306 82.4671 174.348 82.1558C174.389 81.8446 174.366 81.5281 174.281 81.2261C173.854 79.3237 172.803 77.6199 171.296 76.387C169.789 75.1541 167.914 74.4634 165.969 74.4253ZM203.133 74.4253C201.197 74.4415 199.323 75.1123 197.814 76.3291C196.306 77.546 195.251 79.2377 194.821 81.1303C194.704 81.7507 194.826 82.3927 195.163 82.9261C195.5 83.4596 196.027 83.8448 196.636 84.0038C197.255 84.1213 197.895 83.9987 198.427 83.6609C198.96 83.323 199.344 82.7951 199.502 82.1839C199.677 81.3472 200.133 80.5959 200.794 80.0555C201.455 79.5151 202.28 79.2183 203.133 79.2146C204.002 79.1961 204.85 79.4828 205.53 80.025C206.211 80.5673 206.681 81.331 206.859 82.1839C207.004 82.7068 207.317 83.1677 207.748 83.4962C208.179 83.8247 208.706 84.003 209.247 84.0038H209.725C210.033 83.9359 210.324 83.8075 210.583 83.626C210.841 83.4445 211.061 83.2135 211.23 82.9463C211.398 82.6792 211.513 82.3811 211.566 82.0694C211.619 81.7577 211.61 81.4385 211.54 81.1303C211.199 79.1519 210.165 77.3605 208.623 76.0787C207.082 74.7968 205.135 74.1086 203.133 74.1379V74.4253ZM31.1672 100C28.9214 99.9875 26.7002 99.5316 24.6301 98.6583C22.5601 97.785 20.682 96.5115 19.1028 94.9105C17.5237 93.3095 16.2746 91.4123 15.4268 89.3273C14.579 87.2423 14.1491 85.0102 14.1617 82.7586C14.1617 82.7586 14.1617 82.2797 14.1617 81.8966H10.5313L2.12412 78.7356C1.65358 78.5616 1.24659 78.2489 0.956701 77.8386C0.666811 77.4283 0.507595 76.9396 0.5 76.4368V45.5939C0.5 43.0535 1.50654 40.6171 3.2982 38.8208C5.08985 37.0245 7.51986 36.0153 10.0536 36.0153H35.5619L46.2619 14.1762C46.4624 13.7658 46.7758 13.4214 47.1652 13.1838C47.5545 12.9462 48.0036 12.8253 48.4593 12.8353H80.464C81.0974 12.8353 81.7049 13.0875 82.1528 13.5366C82.6008 13.9857 82.8524 14.5948 82.8524 15.2299V38.41V65.9004H144.856L148.39 60.8237C148.65 60.3382 149.062 59.9526 149.564 59.7273C150.065 59.502 150.627 59.4497 151.161 59.5785H217.272C217.657 59.5782 218.036 59.664 218.383 59.8298C218.731 59.9955 219.036 60.2369 219.278 60.5364L226.253 70.115C226.374 70.5862 226.374 71.0805 226.253 71.5517V79.1188C226.253 79.7539 226.001 80.363 225.553 80.812C225.105 81.2611 224.498 81.5134 223.864 81.5134H220.043C220.043 81.5134 220.043 82.0881 220.043 82.3755C220.043 86.9228 218.241 91.2838 215.034 94.4993C211.827 97.7147 207.477 99.5211 202.942 99.5211C198.406 99.5211 194.056 97.7147 190.849 94.4993C187.642 91.2838 185.841 86.9228 185.841 82.3755C185.841 82.3755 185.841 81.8966 185.841 81.5134H182.592C182.636 81.9274 182.636 82.3447 182.592 82.7586C182.592 87.3059 180.791 91.667 177.584 94.8824C174.377 98.0978 170.027 99.9042 165.491 99.9042C160.956 99.9042 156.606 98.0978 153.399 94.8824C150.192 91.667 148.39 87.3059 148.39 82.7586C148.39 82.7586 148.39 81.9924 148.39 81.5134H144.473V88.3142C144.473 88.9493 144.222 89.5584 143.774 90.0074C143.326 90.4565 142.718 90.7088 142.085 90.7088H55.6245C54.9911 90.7088 54.3836 90.4565 53.9356 90.0074C53.4877 89.5584 53.2361 88.9493 53.2361 88.3142V81.6092H47.8861C47.8861 81.6092 47.8861 82.1839 47.8861 82.4713C47.861 87.0362 46.0412 91.407 42.8216 94.635C39.602 97.8629 35.2426 99.6875 30.6895 99.7127L31.1672 100ZM139.697 81.6092H57.9174V85.9195H139.697V81.6092ZM177.911 82.8544C178.086 81.969 178.086 81.0578 177.911 80.1724C177.303 77.4526 175.789 75.0217 173.618 73.2805C171.447 71.5393 168.749 70.5917 165.969 70.5939C163.208 70.5822 160.528 71.5303 158.385 73.2767C156.243 75.0231 154.77 77.4599 154.218 80.1724C153.836 81.1489 153.642 82.1888 153.645 83.2375C153.645 86.5146 154.943 89.6575 157.255 91.9748C159.566 94.2921 162.7 95.5939 165.969 95.5939C169.238 95.5939 172.372 94.2921 174.684 91.9748C176.995 89.6575 178.293 86.5146 178.293 83.2375L177.911 82.8544ZM215.17 82.8544C215.33 82.032 215.33 81.1864 215.17 80.364C214.571 77.6362 213.06 75.1955 210.888 73.4458C208.717 71.6961 206.014 70.7423 203.228 70.7423C200.442 70.7423 197.74 71.6961 195.568 73.4458C193.397 75.1955 191.886 77.6362 191.286 80.364C191.14 81.252 191.14 82.158 191.286 83.046C191.286 84.6686 191.605 86.2754 192.224 87.7745C192.844 89.2737 193.751 90.6358 194.896 91.7832C196.04 92.9306 197.399 93.8408 198.894 94.4617C200.389 95.0827 201.992 95.4023 203.61 95.4023C205.229 95.4023 206.831 95.0827 208.327 94.4617C209.822 93.8408 211.181 92.9306 212.325 91.7832C213.469 90.6358 214.377 89.2737 214.996 87.7745C215.616 86.2754 215.935 84.6686 215.935 83.046L215.17 82.8544ZM78.3622 17.2414H70.0505V35.6322H78.3622V17.2414ZM41.103 35.6322H65.1782V17.2414H50.1789L41.103 35.6322ZM43.1092 82.4713C43.269 81.6489 43.269 80.8033 43.1092 79.9808C42.5096 77.2531 40.9989 74.8124 38.8273 73.0627C36.6556 71.313 33.9532 70.3592 31.1672 70.3592C28.3812 70.3592 25.6788 71.313 23.5071 73.0627C21.3354 74.8124 19.8248 77.2531 19.2251 79.9808C19.079 80.8688 19.079 81.7748 19.2251 82.6628C19.2251 85.9399 20.5236 89.0828 22.8348 91.4001C25.146 93.7173 28.2808 95.0192 31.5493 95.0192C34.8179 95.0192 37.9526 93.7173 40.2639 91.4001C42.5751 89.0828 43.8735 85.9399 43.8735 82.6628L43.1092 82.4713ZM87.9158 54.3104V4.78927H67.6621C67.0287 4.78927 66.4211 4.53698 65.9732 4.0879C65.5253 3.63882 65.2737 3.02973 65.2737 2.39464C65.2737 1.75954 65.5253 1.15045 65.9732 0.701371C66.4211 0.25229 67.0287 0 67.6621 0H90.3042C90.9377 0 91.5452 0.25229 91.9931 0.701371C92.441 1.15045 92.6926 1.75954 92.6926 2.39464V4.02299H242.112C242.745 4.02299 243.353 4.27528 243.8 4.72436C244.248 5.17344 244.5 5.78253 244.5 6.41763V54.3104C244.5 54.9454 244.248 55.5545 243.8 56.0036C243.353 56.4527 242.745 56.705 242.112 56.705H90.3042C89.9906 56.705 89.68 56.643 89.3902 56.5227C89.1004 56.4024 88.8372 56.226 88.6154 56.0036C88.3936 55.7813 88.2177 55.5173 88.0976 55.2267C87.9776 54.9362 87.9158 54.6248 87.9158 54.3104ZM105.112 12.4521C104.479 12.4521 103.871 12.7044 103.424 13.1535C102.976 13.6026 102.724 14.2116 102.724 14.8467V41.4751C102.724 42.1102 102.976 42.7193 103.424 43.1684C103.871 43.6174 104.479 43.8697 105.112 43.8697C105.746 43.8697 106.353 43.6174 106.801 43.1684C107.249 42.7193 107.501 42.1102 107.501 41.4751V14.8467C107.501 14.2116 107.249 13.6026 106.801 13.1535C106.353 12.7044 105.746 12.4521 105.112 12.4521ZM133.773 12.4521C133.14 12.4521 132.532 12.7044 132.084 13.1535C131.637 13.6026 131.385 14.2116 131.385 14.8467V41.4751C131.385 42.1102 131.637 42.7193 132.084 43.1684C132.532 43.6174 133.14 43.8697 133.773 43.8697C134.407 43.8697 135.014 43.6174 135.462 43.1684C135.91 42.7193 136.162 42.1102 136.162 41.4751V14.8467C136.162 14.2116 135.91 13.6026 135.462 13.1535C135.014 12.7044 134.407 12.4521 133.773 12.4521ZM162.434 12.4521C161.801 12.4521 161.193 12.7044 160.745 13.1535C160.297 13.6026 160.046 14.2116 160.046 14.8467V41.4751C160.046 42.1102 160.297 42.7193 160.745 43.1684C161.193 43.6174 161.801 43.8697 162.434 43.8697C163.068 43.8697 163.675 43.6174 164.123 43.1684C164.571 42.7193 164.823 42.1102 164.823 41.4751V14.8467C164.823 14.2116 164.571 13.6026 164.123 13.1535C163.675 12.7044 163.068 12.4521 162.434 12.4521ZM191.095 12.4521C190.462 12.4521 189.854 12.7044 189.406 13.1535C188.958 13.6026 188.707 14.2116 188.707 14.8467V41.4751C188.707 42.1102 188.958 42.7193 189.406 43.1684C189.854 43.6174 190.462 43.8697 191.095 43.8697C191.729 43.8697 192.336 43.6174 192.784 43.1684C193.232 42.7193 193.484 42.1102 193.484 41.4751V14.8467C193.484 14.2279 193.246 13.6329 192.818 13.1865C192.391 12.74 191.807 12.4769 191.191 12.4521H191.095ZM219.756 12.4521C219.123 12.4521 218.515 12.7044 218.067 13.1535C217.619 13.6026 217.368 14.2116 217.368 14.8467V41.4751C217.368 42.1102 217.619 42.7193 218.067 43.1684C218.515 43.6174 219.123 43.8697 219.756 43.8697C220.39 43.8697 220.997 43.6174 221.445 43.1684C221.893 42.7193 222.144 42.1102 222.144 41.4751V14.8467C222.145 14.2279 221.907 13.6329 221.479 13.1865C221.052 12.74 220.468 12.4769 219.852 12.4521H219.756ZM53.7138 52.0115H62.5987C63.2321 52.0115 63.8396 51.7592 64.2875 51.3101C64.7354 50.861 64.9871 50.2519 64.9871 49.6169C64.9871 48.9818 64.7354 48.3727 64.2875 47.9236C63.8396 47.4745 63.2321 47.2222 62.5987 47.2222H53.7138C53.0803 47.2222 52.4728 47.4745 52.0249 47.9236C51.577 48.3727 51.3254 48.9818 51.3254 49.6169C51.3254 50.2519 51.577 50.861 52.0249 51.3101C52.4728 51.7592 53.0803 52.0115 53.7138 52.0115Z" fill="#F57079" stroke="black" stroke-width="2" mask="url(#path-1-inside-1_121_332)"/>
</svg>
